<?xml version="1.0" encoding="UTF-8"?><svg id="Ebene_2" xmlns="http://www.w3.org/2000/svg" viewBox="0 0 235.28 61.28"><g id="Ebene_1-2"><path d="M33.92,45.92H14.24l-5.04,14.32H0L20.72,3.36h6.64l20.72,56.88h-9.2l-4.96-14.32ZM30.96,37.44l-6.88-19.76-6.88,19.76h13.76Z"/><path d="M48.64,18.08h8.88l7.44,26.96,8.96-25.44h6.8l8.96,25.36,7.36-26.88h8.96l-12.24,42.16h-7.6l-8.88-25.52-8.8,25.52h-7.6l-12.24-42.16Z"/><path d="M138.88,56.08l-.96,1.04-7.36,3.76h-5.12l-5.44-1.68-3.92-2.32-4.64-6.72v-4.88l1.2-5.52,6-6.08,7.84-2h5.28l5.28,1.76.32.24v-3.44l-.64-1.6-2.72-1.84-3.52-.88h-5.12l-2.64.96-2.16,1.44-2.24,2.16-5.92-6.16,3.2-2.96,3.6-2.32,5.36-1.6h7.44l5.36,1.36,6.32,4.24,2.24,5.6v22.8l3.36,4.88-6.88,4.96-3.52-5.2ZM128.8,52.4l5.2-2,2.72-2.88.64-1.76v-2.24l-1.28-1.36-1.84-.88-3.68-1.12h-3.12l-4.32,1.2-2.56,2.64-.56,2.08v1.6l2,2.88,1.44.8,3.12,1.04h2.24Z"/><path d="M158.96,0h8.56v33.28l15.2-15.2h12.16l-17.68,17.28,17.84,24.88h-10.48l-13.28-18.96-3.76,3.6v15.36h-8.56V0Z"/><path d="M204.56,56.88l-5.36-7.2-1.68-5.84v-9.2l1.68-6,5.36-7.2,8.16-4h7.2l8.16,4,5.28,7.2,1.92,5.52v9.6h-29.2l.8,1.92,3.36,4.72,4.16,2h4.08l4.8-1.28,4.88-2.96,4.48,6.88-6.16,4.08-7.04,1.76h-6.72l-8.16-4ZM226.64,35.28l-.88-2.56-3.28-4.56-4.08-2.24h-4.32l-3.92,2.08-3.44,4.64-.56,2.64h20.48Z"/></g></svg>