<?xml version="1.0" encoding="UTF-8"?><svg id="Ebene_2" xmlns="http://www.w3.org/2000/svg" viewBox="0 0 450 100"><defs><style>.cls-1{fill:#49cc38;}</style></defs><g id="Ebene_1-2"><polygon class="cls-1" points="118.81 43.37 117.06 42.73 114.03 42.73 111.38 44.22 109.15 47.24 108.62 49.26 108.62 54.03 109.15 55.89 111.32 58.97 114.24 60.35 117.11 60.35 120.03 58.33 121.35 56.42 121.35 45.49 120.51 44.43 118.81 43.37"/><polygon class="cls-1" points="89.88 44.11 87.28 42.78 83.62 42.78 81.13 44.11 79.8 45.97 79.16 49.1 79.16 53.98 79.8 57.27 81.02 59.02 83.73 60.4 87.23 60.4 89.99 59.02 91.16 57.22 91.85 53.98 91.85 49.1 91.16 46.02 89.88 44.11"/><path class="cls-1" d="M400,0H50C22.39,0,0,22.39,0,50h0c0,27.61,22.39,50,50,50h350c27.61,0,50-22.39,50-50h0c0-27.61-22.39-50-50-50ZM66.8,59.87l-2.92,3.61-4.46,2.07h-17.83V27.82h15.87l5.09,1.38,3.66,4.03,1.17,5.2-1.06,4.19-1.91,2.5-1.06.53,1.06.58,2.44,3.24,1.22,5.2-1.27,5.2ZM97.47,54.72l-.96,4.56-2.81,4.09-5.41,2.6h-5.62l-5.36-2.6-2.81-4.09-1.01-4.56v-6.26l1.01-4.56,2.81-4.09,5.36-2.65h5.62l5.41,2.65,2.81,4.09.96,4.56v6.26ZM127.03,65.55h-5.62v-1.54l-3.24,1.96h-4.99l-5.52-2.6-3.56-4.83-1.17-3.87v-6.1l1.17-3.98,3.56-4.78,5.41-2.65h4.67l3.18,1.17.42.32v-13.11h5.68v40.01ZM142.42,74.2h-6.16l5.84-12.9-10.77-23.72h6.42l7.43,16.88,7.43-16.88h6.32l-16.5,36.62ZM186.42,65.55h-5.68v-27.97h5.68v27.97ZM187.27,33.23h-7.43v-7.7h7.43v7.7ZM218.74,65.55h-5.68v-20.49l-1.01-1.43-2.65-.85h-2.81l-3.29,2.18-1.27,1.8v18.79h-5.68v-27.97h5.68v1.7l3.66-2.12h4.78l4.94,1.33,3.34,4.51v22.55ZM246.81,59.82l-2.07,3.13-2.71,1.96-3.71,1.06h-4.67l-4.41-1.11-2.55-2.07-1.7-1.91,3.98-3.82,1.38,1.59,1.17.9,3.08.85h3.08l1.75-.53,1.06-.74.69-.96v-1.54l-.69-1.11-1.17-.8-7.17-1.49-3.56-1.91-2.33-3.18v-4.99l1.8-3.13,2.6-1.96,3.18-.9h4.67l4.19,1.11,3.77,2.55-3.13,4.67-2.87-1.96-2.55-.8h-3.13l-1.91.53-.53.48-.48.85v1.8l.74.96,1.11.58,7.75,1.54,3.13,2.07,2.18,3.5v4.78ZM260.13,65.55h-5.68v-27.97h5.68v27.97ZM260.98,33.23h-7.43v-7.7h7.43v7.7ZM292.13,66.35l-1.33,3.98-4.25,2.81-3.82,1.33h-4.72l-3.61-.96-2.81-1.8-1.91-1.91,3.98-4.09,1.75,1.75.96.74,2.44.64h3.24l2.07-.74,1.91-1.38.48-1.17v-3.13l-3.18,1.91h-4.88l-5.47-2.12-3.72-4.83-1.17-3.93v-4.88l1.17-3.98,3.56-4.78,5.36-2.65h4.72l3.18,1.17.42.32v-1.06h5.63v28.76ZM323.71,65.55h-5.68v-20.49l-1.06-1.54-2.12-.74h-3.03l-3.29,2.18-1.27,1.91v18.68h-5.68V25.53h5.68v13.69l3.66-2.07h4.83l4.62,1.38,3.34,4.46v22.55ZM341.97,65.97h-2.55l-3.93-1.49-3.02-4.3v-16.29h-4.78v-5.63h4.78v-9.76h5.68v9.76h6.95v5.63h-6.95v14.54l.96,1.27,1.43.64h1.11l4.3-1.11,1.43,5.52-5.41,1.22ZM372.16,59.82l-2.07,3.13-2.71,1.96-3.71,1.06h-4.67l-4.41-1.11-2.55-2.07-1.7-1.91,3.98-3.82,1.38,1.59,1.17.9,3.08.85h3.08l1.75-.53,1.06-.74.69-.96v-1.54l-.69-1.11-1.17-.8-7.17-1.49-3.56-1.91-2.33-3.18v-4.99l1.8-3.13,2.6-1.96,3.18-.9h4.67l4.19,1.11,3.77,2.55-3.13,4.67-2.87-1.96-2.55-.8h-3.13l-1.91.53-.53.48-.48.85v1.8l.74.96,1.12.58,7.75,1.54,3.13,2.07,2.18,3.5v4.78ZM416.94,55.05l-5.05,5.05-.02-.02-12.43,12.43-5.05-5.05,16.23-16.23.02.02,1.24-1.24-1.24-1.24-.02.02-16.23-16.23,5.05-5.05,12.43,12.43.02-.02,5.05,5.05,5.05,5.05-5.05,5.05Z"/><polygon class="cls-1" points="283.96 43.37 282.21 42.73 279.13 42.73 276.53 44.22 274.3 47.24 273.77 49.26 273.77 52.76 274.25 54.62 276.42 57.59 279.29 58.7 282.26 58.7 285.18 56.69 286.51 54.62 286.51 45.49 285.6 44.43 283.96 43.37"/><polygon class="cls-1" points="60.38 41.19 60.86 40.55 61.49 38.27 60.91 35.99 59.37 34.24 57.03 33.49 47.32 33.49 47.32 42.68 58.15 42.68 60.38 41.19"/><polygon class="cls-1" points="60.33 49.84 57.99 48.41 47.32 48.41 47.32 59.87 57.99 59.87 60.11 58.86 61.39 57.43 62.08 54.67 61.39 51.54 60.33 49.84"/></g></svg>