<?xml version="1.0" encoding="UTF-8"?><svg id="Ebene_2" xmlns="http://www.w3.org/2000/svg" viewBox="0 0 400 100"><defs><style>.cls-1{fill:#49cc38;}.cls-2{fill:#fefefd;}</style></defs><g id="Ebene_1-2"><rect class="cls-2" y="0" width="400" height="100" rx="37.71" ry="37.71" transform="translate(400 100) rotate(180)"/><path class="cls-1" d="M106.94,30.72h5.03v35.44h-5.03V30.72Z"/><path class="cls-1" d="M121.51,64.23l-2.49-3.62-.89-4.04v-5.55l.89-4.04,2.49-3.62,4.75-2.35h4.98l4.79,2.35,2.49,3.62.85,4.04v5.55l-.85,4.04-2.49,3.62-4.79,2.3h-4.98l-4.75-2.3ZM130.3,61.6l2.44-1.22,1.03-1.6.61-2.87v-4.32l-.61-2.73-1.13-1.69-2.3-1.17h-3.24l-2.21,1.17-1.18,1.65-.56,2.77v4.32l.56,2.91,1.08,1.55,2.4,1.22h3.1Z"/><path class="cls-1" d="M149.9,73.21l-2.49-1.6-1.69-1.69,3.53-3.62,1.55,1.55.85.66,2.16.56h2.87l1.83-.66,1.69-1.22.42-1.03v-2.77l-2.82,1.69h-4.32l-4.84-1.88-3.29-4.28-1.03-3.48v-4.32l1.03-3.52,3.15-4.23,4.75-2.35h4.18l2.82,1.03.38.28v-.94h4.98v25.47l-1.17,3.52-3.76,2.49-3.38,1.17h-4.18l-3.2-.85ZM156.85,60.09l2.58-1.79,1.18-1.83v-8.08l-.8-.94-1.46-.94-1.55-.56h-2.73l-2.3,1.32-1.97,2.68-.47,1.79v3.1l.42,1.64,1.93,2.63,2.54.99h2.63Z"/><path class="cls-1" d="M190.18,64.23l-3.15-4.28-1.03-3.43v-5.4l1.03-3.52,3.15-4.23,4.79-2.35h4.13l2.82,1.03.38.28v-11.61h5.03v35.44h-4.98v-1.36l-2.87,1.74h-4.42l-4.89-2.3ZM198.54,61.55l2.58-1.79,1.18-1.69v-9.68l-.75-.94-1.5-.94-1.55-.56h-2.68l-2.35,1.32-1.97,2.68-.47,1.79v4.23l.47,1.64,1.93,2.73,2.58,1.22h2.54Z"/><path class="cls-1" d="M214.85,41.39h5.03v1.79l.56-.56,3.29-1.6h3.24l2.87.8-1.22,4.84-2.4-.66h-1.6l-2.16,1.03-1.64,1.83-.94,2.02v15.27h-5.03v-24.77Z"/><path class="cls-1" d="M233.28,30.72h6.58v6.81h-6.58v-6.81ZM234.07,41.39h5.03v24.77h-5.03v-24.77Z"/><path class="cls-1" d="M247.89,41.39h5.03v1.5l3.24-1.88h4.23l4.37,1.17,2.96,4v19.97h-5.03v-18.14l-.89-1.27-2.35-.75h-2.49l-2.91,1.93-1.13,1.6v16.64h-5.03v-24.77Z"/><path class="cls-1" d="M275.06,30.77h5.03v19.55l8.93-8.93h7.14l-10.39,10.15,10.48,14.62h-6.16l-7.8-11.14-2.21,2.11v9.02h-5.03V30.77Z"/></g></svg>