<?xml version="1.0" encoding="UTF-8"?><svg id="Ebene_2" xmlns="http://www.w3.org/2000/svg" viewBox="0 0 151.57 150.54"><g id="Ebene_1-2"><path d="M151.57,89.11v-26.22h-27.59l-4.76-11.06,19.68-19.68-20.86-20.19-19.39,19.39-9.22-4.25V0h-28.27v26.82l-11.01,4.95L30.54,12.16,12,30.7l19.53,19.53-4.05,10.71-27.47,1.06,1.26,28.27,26.92-.13,3.34,7.94.49,1.34-19.66,19.66,20.62,19.68,18.92-18.92,9.74,3.7v26.75l27.76.25v-26.3l10.44-4.71,20.08,18.59,18.46-18.46-19.23-19.23,4.61-11.32h27.8ZM56.95,93.58v-36.61s37.66,0,37.66,0v36.61s-37.66,0-37.66,0Z"/></g></svg>