<?xml version="1.0" encoding="UTF-8"?><svg id="Ebene_2" xmlns="http://www.w3.org/2000/svg" viewBox="0 0 77.54 77.69"><defs><style>.cls-1{fill:#49cc38;}</style></defs><g id="Ebene_1-2"><rect class="cls-1" x="28.96" y="4.41" width="4.41" height="9.85"/><rect class="cls-1" x="34.37" width="9.85" height="4.41"/><rect class="cls-1" x="44.77" y="4.55" width="4.41" height="9.85"/><rect class="cls-1" x="29.19" y="34.15" width="4.41" height="9.85"/><rect class="cls-1" x="34.6" y="29.74" width="9.85" height="4.41"/><rect class="cls-1" x="34.37" y="44" width="9.85" height="4.41"/><rect class="cls-1" x="45" y="34.29" width="4.41" height="9.85"/><rect class="cls-1" x="49.29" y="10.21" width="9.85" height="4.41" transform="translate(7.1 41.98) rotate(-45)"/><rect class="cls-1" x="62.81" y="8.2" width="4.41" height="9.85" transform="translate(9.76 49.82) rotate(-45)"/><rect class="cls-1" x="60.38" y="21.49" width="9.85" height="4.41" transform="translate(2.37 53.12) rotate(-45)"/><rect class="cls-1" x="62.69" y="49.07" width="4.41" height="9.85" transform="translate(-19.17 61.71) rotate(-45)"/><rect class="cls-1" x="59.26" y="62.58" width="9.85" height="4.41" transform="translate(-27.01 64.36) rotate(-45)"/><rect class="cls-1" x="51.42" y="60.15" width="4.41" height="9.85" transform="translate(-30.31 56.98) rotate(-45)"/><rect class="cls-1" x="10.13" y="18.79" width="4.41" height="9.85" transform="translate(-13.15 15.67) rotate(-45)"/><rect class="cls-1" x="8.12" y="10.71" width="9.85" height="4.41" transform="translate(-5.31 13.01) rotate(-45)"/><rect class="cls-1" x="21.4" y="7.7" width="4.41" height="9.85" transform="translate(-2.01 20.39) rotate(-45)"/><rect class="cls-1" x="63.28" y="28.74" width="9.85" height="4.41"/><rect class="cls-1" x="73.13" y="34.15" width="4.41" height="9.85"/><rect class="cls-1" x="63.15" y="44.55" width="9.85" height="4.41"/><rect class="cls-1" x="44.17" y="63.43" width="4.41" height="9.85"/><rect class="cls-1" x="33.32" y="73.28" width="9.85" height="4.41"/><rect class="cls-1" x="28.36" y="63.29" width="4.41" height="9.85"/><rect class="cls-1" x="18.4" y="63.07" width="9.85" height="4.41" transform="translate(-39.32 35.61) rotate(-45)"/><rect class="cls-1" x="10.32" y="59.64" width="4.41" height="9.85" transform="translate(-41.98 27.77) rotate(-45)"/><rect class="cls-1" x="7.31" y="51.79" width="9.85" height="4.41" transform="translate(-34.6 24.47) rotate(-45)"/><rect class="cls-1" x="4.41" y="44.55" width="9.85" height="4.41"/><rect class="cls-1" y="33.69" width="4.41" height="9.85"/><rect class="cls-1" x="4.55" y="28.74" width="9.85" height="4.41"/></g></svg>