<?xml version="1.0" encoding="UTF-8"?><svg id="Ebene_2" xmlns="http://www.w3.org/2000/svg" viewBox="0 0 400 100"><defs><style>.cls-1{fill:#b2b2b4;}.cls-2{fill:#fffefd;}</style></defs><g id="Ebene_1-2"><rect class="cls-2" x="0" y="0" width="400" height="100" rx="37.71" ry="37.71"/><path class="cls-1" d="M63.8,65.55l-2.26-1.83-1.5-1.69,3.53-3.38,1.22,1.41,1.03.8,2.73.75h2.72l1.55-.47.94-.66.61-.85v-1.36l-.61-.99-1.04-.71-6.34-1.32-3.15-1.69-2.07-2.82v-4.42l1.6-2.77,2.3-1.74,2.82-.8h4.13l3.71.99,3.34,2.26-2.77,4.14-2.54-1.74-2.26-.71h-2.77l-1.69.47-.47.42-.42.75v1.6l.66.85.99.52,6.86,1.36,2.77,1.83,1.93,3.1v4.23l-1.83,2.77-2.4,1.74-3.29.94h-4.13l-3.9-.99Z"/><path class="cls-1" d="M85.09,30.72h5.03v35.44h-5.03V30.72Z"/><path class="cls-1" d="M100.31,64.18l-3.15-4.23-.99-3.43v-5.4l.99-3.52,3.15-4.23,4.79-2.35h4.23l4.79,2.35,3.1,4.23,1.13,3.24v5.64h-17.15l.47,1.13,1.97,2.77,2.44,1.18h2.4l2.82-.75,2.87-1.74,2.63,4.04-3.62,2.4-4.14,1.03h-3.95l-4.79-2.35ZM113.29,51.49l-.52-1.5-1.93-2.68-2.4-1.32h-2.54l-2.3,1.22-2.02,2.73-.33,1.55h12.03Z"/><path class="cls-1" d="M127.29,64.18l-3.15-4.23-.99-3.43v-5.4l.99-3.52,3.15-4.23,4.79-2.35h4.23l4.79,2.35,3.1,4.23,1.13,3.24v5.64h-17.15l.47,1.13,1.97,2.77,2.45,1.18h2.4l2.82-.75,2.87-1.74,2.63,4.04-3.62,2.4-4.13,1.03h-3.95l-4.79-2.35ZM140.26,51.49l-.52-1.5-1.93-2.68-2.4-1.32h-2.54l-2.3,1.22-2.02,2.73-.33,1.55h12.03Z"/><path class="cls-1" d="M151.97,41.39h4.98v1.36l2.87-1.74h4.42l4.89,2.3,3.15,4.28,1.04,3.43v5.4l-1.04,3.52-3.15,4.23-4.79,2.35h-4.18l-2.77-1.03-.38-.28v8.6h-5.03v-32.43ZM163.48,61.6l2.35-1.32,1.97-2.68.47-1.79v-4.18l-.47-1.69-1.93-2.73-2.59-1.22h-2.54l-2.58,1.79-1.18,1.69v9.68l.75.94,1.5.94,1.55.56h2.68Z"/><path class="cls-1" d="M208.18,64.79l-2.82,1.74h-4.42l-4.89-2.3-3.15-4.28-1.04-3.43v-5.4l1.04-3.52,3.15-4.23,4.79-2.35h4.14l2.82,1.03.38.28v-.94h5.03v32.43h-5.03v-9.02ZM204.42,61.55l2.59-1.79,1.17-1.69v-9.68l-.75-.94-1.5-.94-1.55-.56h-2.68l-2.35,1.32-1.97,2.68-.47,1.79v4.23l.47,1.64,1.93,2.73,2.59,1.22h2.54Z"/><path class="cls-1" d="M224.06,65.36l-3.15-4.09v-19.88h5.03v18.14l1.08,1.46,2.26.61h2.16l2.91-1.97,1.17-1.55v-16.68h5.03v24.77h-4.98v-1.5l-3.29,1.88h-3.76l-4.46-1.17Z"/><path class="cls-1" d="M263.31,63.71l-.56.61-4.32,2.21h-3.01l-3.2-.99-2.3-1.36-2.72-3.95v-2.87l.7-3.24,3.53-3.57,4.61-1.17h3.1l3.1,1.03.19.14v-2.02l-.38-.94-1.6-1.08-2.07-.52h-3.01l-1.55.56-1.27.85-1.32,1.27-3.48-3.62,1.88-1.74,2.12-1.36,3.15-.94h4.37l3.15.8,3.71,2.49,1.31,3.29v13.39l1.97,2.87-4.04,2.91-2.07-3.05ZM257.39,61.55l3.05-1.18,1.6-1.69.38-1.03v-1.32l-.75-.8-1.08-.52-2.16-.66h-1.83l-2.54.71-1.5,1.55-.33,1.22v.94l1.18,1.69.85.47,1.83.61h1.32Z"/><path class="cls-1" d="M274.96,30.72h5.03v35.44h-5.03V30.72Z"/><path class="cls-1" d="M287.56,30.72h6.58v6.81h-6.58v-6.81ZM288.36,41.39h5.03v24.77h-5.03v-24.77Z"/><path class="cls-1" d="M305.84,65.22l-2.68-3.81v-14.43h-4.23v-4.98h4.23v-8.65h5.03v8.65h6.16v4.98h-6.16v12.88l.85,1.13,1.27.56h.99l3.81-.99,1.27,4.89-4.79,1.08h-2.26l-3.48-1.32Z"/><path class="cls-1" d="M326.33,62.4l-9.54-21.01h5.69l6.58,14.95,6.58-14.95h5.59l-14.62,32.43h-5.45l5.17-11.42Z"/></g></svg>